<?xml version="1.0" encoding="UTF-8" standalone="no"?>
<!DOCTYPE svg PUBLIC "-//W3C//DTD SVG 1.1//EN" "http://www.w3.org/Graphics/SVG/1.1/DTD/svg11.dtd">
<svg width="100%" height="100%" viewBox="0 0 1200 650" version="1.1" xmlns="http://www.w3.org/2000/svg" xmlns:xlink="http://www.w3.org/1999/xlink" xml:space="preserve" xmlns:serif="http://www.serif.com/" style="fill-rule:evenodd;clip-rule:evenodd;stroke-linejoin:round;stroke-miterlimit:2;">
    <g transform="matrix(1.69683,0,0,1.69683,810,335.52)">
        <g transform="matrix(1,0,0,1,-221,-31)">
            <g transform="matrix(1,0,0,1,-796,-150)">
                <path d="M1106.63,181.191C1105.52,182.04 1103.34,182.592 1100.1,182.847L1095.36,183.166C1089.34,183.59 1086.33,186.032 1086.33,190.49C1086.33,192.571 1087.01,194.195 1088.38,195.363C1089.74,196.531 1091.66,197.115 1094.14,197.115C1097.94,197.115 1100.97,196.212 1103.23,194.408C1105.5,192.603 1106.63,190.193 1106.63,187.178L1106.63,181.191ZM1036.18,172.975C1034.13,172.975 1032.54,173.516 1031.41,174.599C1030.28,175.682 1029.71,177.242 1029.71,179.28L1029.71,187.306C1029.71,189.344 1030.28,190.904 1031.41,191.987C1032.54,193.07 1034.13,193.611 1036.18,193.611C1038.27,193.611 1039.89,193.07 1041.02,191.987C1042.15,190.904 1042.71,189.344 1042.71,187.306L1042.71,179.28C1042.71,177.242 1042.15,175.682 1041.02,174.599C1039.89,173.516 1038.27,172.975 1036.18,172.975ZM961.358,172.975C958.84,172.975 956.876,173.856 955.467,175.618C954.059,177.38 953.354,179.599 953.354,182.274L953.354,184.312C953.354,186.987 954.059,189.206 955.467,190.968C956.876,192.73 958.84,193.611 961.358,193.611C965.329,193.611 967.89,191.679 969.042,187.815L969.042,178.771C967.89,174.907 965.329,172.975 961.358,172.975ZM901.111,172.975C899.062,172.975 897.471,173.516 896.34,174.599C895.209,175.682 894.643,177.242 894.643,179.28L894.643,187.306C894.643,189.344 895.209,190.904 896.34,191.987C897.471,193.07 899.062,193.611 901.111,193.611C903.203,193.611 904.814,193.07 905.945,191.987C907.076,190.904 907.642,189.344 907.642,187.306L907.642,179.28C907.642,177.242 907.076,175.682 905.945,174.599C904.814,173.516 903.203,172.975 901.111,172.975ZM865.308,172.975C862.789,172.975 860.826,173.856 859.417,175.618C858.008,177.38 857.304,179.599 857.304,182.274L857.304,183.548C857.304,186.223 858.008,188.442 859.417,190.204C860.826,191.966 862.789,192.847 865.308,192.847C869.235,192.847 871.797,190.958 872.992,187.178L872.992,178.707C871.797,174.885 869.235,172.975 865.308,172.975ZM1225.9,169.344C1222.65,169.344 1220.15,170.193 1218.37,171.892C1216.6,173.59 1215.72,175.989 1215.72,179.089L1215.72,187.497C1215.72,190.597 1216.6,192.996 1218.37,194.694C1220.15,196.393 1222.65,197.242 1225.9,197.242C1229.14,197.242 1231.65,196.393 1233.42,194.694C1235.19,192.996 1236.08,190.597 1236.08,187.497L1236.08,179.089C1236.08,175.989 1235.19,173.59 1233.42,171.892C1231.65,170.193 1229.14,169.344 1225.9,169.344ZM1171.68,169.344C1168.65,169.344 1166.22,170.151 1164.41,171.764C1162.59,173.378 1161.69,175.544 1161.69,178.261L1161.69,182.783L1177.76,182.783C1179.38,182.783 1180.48,182.507 1181.06,181.955C1181.63,181.403 1181.92,180.384 1181.92,178.898C1181.92,175.798 1181.04,173.431 1179.27,171.796C1177.49,170.161 1174.96,169.344 1171.68,169.344ZM985.507,168.325L992.487,168.325L992.487,190.299C992.487,191.319 992.679,192.146 993.063,192.783C993.447,193.42 994.152,194.142 995.176,194.949L990.566,199.025C988.688,198.049 987.375,196.924 986.628,195.65C985.881,194.376 985.507,192.635 985.507,190.427L985.507,168.325ZM1225.9,167.688C1229.7,167.688 1232.66,168.696 1234.8,170.713C1236.93,172.73 1238,175.522 1238,179.089L1238,187.497C1238,191.064 1236.93,193.856 1234.8,195.873C1232.66,197.89 1229.7,198.898 1225.9,198.898C1222.1,198.898 1219.13,197.89 1217,195.873C1214.86,193.856 1213.8,191.064 1213.8,187.497L1213.8,179.089C1213.8,175.522 1214.86,172.73 1217,170.713C1219.13,168.696 1222.1,167.688 1225.9,167.688ZM1192.45,167.688C1193.17,168.155 1193.68,168.696 1193.95,169.312C1194.23,169.928 1194.37,170.788 1194.37,171.892L1194.37,178.389C1195.27,174.992 1196.7,172.359 1198.66,170.49C1200.62,168.622 1202.93,167.688 1205.57,167.688C1206.9,167.688 1207.99,167.921 1208.84,168.389L1208.2,170.427C1207.26,169.96 1206.17,169.726 1204.93,169.726C1202.29,169.726 1200,171.127 1198.08,173.93C1196.16,176.732 1194.92,180.448 1194.37,185.076L1194.37,198.261L1192.45,198.261L1192.45,171.51C1192.45,170.915 1192.36,170.448 1192.19,170.108C1192.02,169.769 1191.66,169.344 1191.1,168.834L1192.45,167.688ZM1171.68,167.688C1175.65,167.688 1178.67,168.643 1180.74,170.554C1182.81,172.465 1183.84,175.246 1183.84,178.898C1183.84,180.979 1183.41,182.423 1182.53,183.229C1181.66,184.036 1180.07,184.439 1177.76,184.439L1161.69,184.439L1161.69,188.325C1161.69,191.34 1162.58,193.58 1164.38,195.045C1166.17,196.51 1168.9,197.242 1172.57,197.242C1176.76,197.242 1180.04,195.926 1182.43,193.293L1183.78,194.503C1181.18,197.433 1177.44,198.898 1172.57,198.898C1168.26,198.898 1165.05,198.028 1162.94,196.287C1160.82,194.546 1159.77,191.892 1159.77,188.325L1159.77,178.261C1159.77,174.992 1160.83,172.412 1162.97,170.522C1165.1,168.633 1168.01,167.688 1171.68,167.688ZM1141.36,167.688C1146.39,167.688 1149.85,169.259 1151.73,172.401L1150.32,173.484C1148.49,170.724 1145.5,169.344 1141.36,169.344C1139.01,169.344 1137.09,169.928 1135.59,171.096C1134.1,172.263 1133.35,173.781 1133.35,175.65C1133.35,177.433 1133.97,178.824 1135.21,179.822C1136.45,180.82 1138.5,181.552 1141.36,182.019C1145.37,182.698 1148.24,183.707 1149.97,185.045C1151.7,186.382 1152.56,188.261 1152.56,190.682C1152.56,193.314 1151.59,195.342 1149.65,196.764C1147.71,198.187 1144.94,198.898 1141.36,198.898C1138.88,198.898 1136.8,198.516 1135.11,197.752C1133.43,196.987 1131.94,195.756 1130.66,194.057L1132.01,192.847C1133.33,194.503 1134.67,195.65 1136.01,196.287C1137.35,196.924 1139.14,197.242 1141.36,197.242C1144.35,197.242 1146.64,196.658 1148.24,195.49C1149.84,194.323 1150.64,192.677 1150.64,190.554C1150.64,188.686 1149.88,187.253 1148.37,186.255C1146.85,185.257 1144.17,184.439 1140.33,183.803C1137.26,183.251 1135.01,182.316 1133.58,181C1132.15,179.684 1131.43,177.858 1131.43,175.522C1131.43,173.187 1132.35,171.297 1134.19,169.853C1136.02,168.41 1138.41,167.688 1141.36,167.688ZM1097.41,167.688C1100.82,167.688 1103.53,168.548 1105.54,170.268C1107.54,171.987 1108.55,174.291 1108.55,177.178L1108.55,195.076C1108.55,195.628 1108.63,196.085 1108.8,196.446C1108.97,196.807 1109.34,197.242 1109.89,197.752L1108.55,198.898C1107.82,198.431 1107.32,197.879 1107.04,197.242C1106.77,196.605 1106.63,195.756 1106.63,194.694L1106.63,193.038C1105.56,194.991 1103.97,196.456 1101.86,197.433C1099.74,198.41 1097.17,198.898 1094.14,198.898C1091.11,198.898 1088.73,198.155 1087,196.669C1085.27,195.183 1084.41,193.123 1084.41,190.49C1084.41,185.098 1087.95,182.125 1095.04,181.573L1100.93,181.127C1102.93,180.958 1104.35,180.618 1105.19,180.108C1106.02,179.599 1106.5,178.771 1106.63,177.624L1106.63,177.178C1106.63,174.8 1105.79,172.9 1104.13,171.478C1102.46,170.055 1100.22,169.344 1097.41,169.344C1094.63,169.344 1092.49,169.652 1090.97,170.268C1089.46,170.883 1088.19,171.955 1087.16,173.484L1085.75,172.401C1086.69,170.788 1088.11,169.599 1090.01,168.834C1091.91,168.07 1094.38,167.688 1097.41,167.688ZM1066.32,167.688C1071.35,167.688 1074.81,169.259 1076.69,172.401L1075.28,173.484C1073.45,170.724 1070.46,169.344 1066.32,169.344C1063.97,169.344 1062.05,169.928 1060.55,171.096C1059.06,172.263 1058.31,173.781 1058.31,175.65C1058.31,177.433 1058.93,178.824 1060.17,179.822C1061.41,180.82 1063.46,181.552 1066.32,182.019C1070.33,182.698 1073.2,183.707 1074.93,185.045C1076.66,186.382 1077.52,188.261 1077.52,190.682C1077.52,193.314 1076.55,195.342 1074.61,196.764C1072.67,198.187 1069.9,198.898 1066.32,198.898C1063.84,198.898 1061.76,198.516 1060.07,197.752C1058.39,196.987 1056.9,195.756 1055.62,194.057L1056.97,192.847C1058.29,194.503 1059.63,195.65 1060.97,196.287C1062.32,196.924 1064.1,197.242 1066.32,197.242C1069.31,197.242 1071.6,196.658 1073.2,195.49C1074.8,194.323 1075.6,192.677 1075.6,190.554C1075.6,188.686 1074.84,187.253 1073.33,186.255C1071.81,185.257 1069.14,184.439 1065.29,183.803C1062.22,183.251 1059.97,182.316 1058.54,181C1057.11,179.684 1056.39,177.858 1056.39,175.522C1056.39,173.187 1057.31,171.297 1059.15,169.853C1060.98,168.41 1063.37,167.688 1066.32,167.688ZM1036.18,167.561C1040.49,167.561 1043.82,168.58 1046.17,170.618C1048.52,172.656 1049.69,175.544 1049.69,179.28L1049.69,187.306C1049.69,191.042 1048.52,193.93 1046.17,195.968C1043.82,198.006 1040.49,199.025 1036.18,199.025C1031.91,199.025 1028.6,198.006 1026.26,195.968C1023.91,193.93 1022.73,191.042 1022.73,187.306L1022.73,179.28C1022.73,175.544 1023.91,172.656 1026.26,170.618C1028.6,168.58 1031.91,167.561 1036.18,167.561ZM924.395,167.561C925.889,168.325 927.01,169.163 927.757,170.076C928.504,170.989 928.984,172.125 929.198,173.484C930.094,171.658 931.289,170.214 932.783,169.153C934.277,168.091 936.049,167.561 938.098,167.561C940.062,167.561 941.791,168.091 943.285,169.153L941.492,175.013C940.724,174.503 939.945,174.132 939.155,173.898C938.365,173.665 937.458,173.548 936.433,173.548C933.104,173.548 930.756,175.989 929.39,180.873L929.39,198.261L922.41,198.261L922.41,176.287C922.41,175.267 922.218,174.44 921.834,173.803C921.449,173.166 920.745,172.444 919.721,171.637L924.395,167.561ZM901.111,167.561C905.422,167.561 908.752,168.58 911.1,170.618C913.448,172.656 914.622,175.544 914.622,179.28L914.622,187.306C914.622,191.042 913.448,193.93 911.1,195.968C908.752,198.006 905.422,199.025 901.111,199.025C896.842,199.025 893.533,198.006 891.185,195.968C888.838,193.93 887.664,191.042 887.664,187.306L887.664,179.28C887.664,175.544 888.838,172.656 891.185,170.618C893.533,168.58 896.842,167.561 901.111,167.561ZM863.451,167.561C867.848,167.561 871.199,169.259 873.504,172.656C873.76,171.552 874.241,170.607 874.945,169.822C875.649,169.036 876.685,168.282 878.051,167.561L882.661,171.637C881.637,172.444 880.932,173.166 880.548,173.803C880.164,174.44 879.972,175.267 879.972,176.287L879.972,199.599C879.972,203.548 878.894,206.435 876.738,208.261C874.582,210.087 871.156,211 866.461,211L858.264,211L858.264,205.65L866.461,205.65C868.68,205.65 870.324,205.161 871.391,204.185C872.458,203.208 872.992,201.679 872.992,199.599L872.992,193.994C872.01,195.395 870.772,196.456 869.278,197.178C867.784,197.9 865.863,198.261 863.515,198.261C859.502,198.261 856.3,196.934 853.91,194.28C851.519,191.626 850.324,188.049 850.324,183.548L850.324,182.274C850.324,179.514 850.826,177.019 851.829,174.79C852.832,172.56 854.326,170.798 856.311,169.503C858.296,168.208 860.676,167.561 863.451,167.561ZM989.029,155.076C990.139,155.076 991.11,155.49 991.943,156.318C992.775,157.146 993.191,158.113 993.191,159.217C993.191,160.363 992.775,161.35 991.943,162.178C991.11,163.006 990.139,163.42 989.029,163.42C987.876,163.42 986.884,163.006 986.051,162.178C985.219,161.35 984.803,160.363 984.803,159.217C984.803,158.113 985.219,157.146 986.051,156.318C986.884,155.49 987.876,155.076 989.029,155.076ZM1004.12,154.185C1006,155.161 1007.3,156.276 1008.02,157.529C1008.75,158.781 1009.11,160.533 1009.11,162.783L1009.11,168.325L1017.82,168.325L1017.82,173.739L1009.11,173.739L1009.11,187.879C1009.11,189.705 1009.43,191.021 1010.07,191.828C1010.71,192.635 1011.76,193.038 1013.21,193.038L1017.82,193.038L1017.82,198.389L1013.21,198.389C1009.2,198.389 1006.35,197.592 1004.66,196C1002.98,194.408 1002.13,191.701 1002.13,187.879L1002.13,162.911C1002.13,161.892 1001.94,161.064 1001.56,160.427C1001.17,159.79 1000.47,159.068 999.442,158.261L1004.12,154.185ZM812.56,153.675L827.672,153.675L827.672,159.599L812.56,159.599C809.828,159.599 807.811,160.225 806.509,161.478C805.207,162.73 804.556,164.694 804.556,167.369L804.556,173.038L824.727,173.038L824.727,178.898L804.556,178.898L804.556,184.567C804.556,187.242 805.207,189.206 806.509,190.459C807.811,191.711 809.828,192.338 812.56,192.338L827.928,192.338L827.928,198.261L812.56,198.261C807.139,198.261 803.19,197.104 800.714,194.79C798.238,192.476 797,189.068 797,184.567L797,167.369C797,162.868 798.238,159.461 800.714,157.146C803.19,154.832 807.139,153.675 812.56,153.675ZM1119.28,153.038C1120.05,153.505 1120.58,154.047 1120.88,154.662C1121.18,155.278 1121.33,156.138 1121.33,157.242L1121.33,195.076C1121.33,195.628 1121.42,196.085 1121.59,196.446C1121.76,196.807 1122.12,197.242 1122.68,197.752L1121.46,198.898C1120.69,198.431 1120.16,197.89 1119.86,197.274C1119.56,196.658 1119.41,195.798 1119.41,194.694L1119.41,156.86C1119.41,156.265 1119.32,155.798 1119.15,155.459C1118.98,155.119 1118.62,154.694 1118.06,154.185L1119.28,153.038ZM971.028,151.064C972.906,152.04 974.208,153.155 974.934,154.408C975.659,155.66 976.022,157.391 976.022,159.599L976.022,190.299C976.022,191.319 976.214,192.146 976.598,192.783C976.983,193.42 977.687,194.142 978.712,194.949L974.101,199.025C971.796,197.837 970.302,196.138 969.619,193.93C968.509,195.628 967.132,196.902 965.489,197.752C963.845,198.601 961.849,199.025 959.501,199.025C955.489,199.025 952.298,197.698 949.928,195.045C947.559,192.391 946.375,188.813 946.375,184.312L946.375,182.274C946.375,179.514 946.887,177.019 947.911,174.79C948.936,172.56 950.43,170.798 952.394,169.503C954.357,168.208 956.727,167.561 959.501,167.561C963.728,167.561 966.908,168.941 969.042,171.701L969.042,159.726C969.042,158.707 968.85,157.879 968.466,157.242C968.082,156.605 967.378,155.883 966.353,155.076L971.028,151.064ZM837.349,151C839.228,151.977 840.53,153.091 841.255,154.344C841.981,155.597 842.344,157.348 842.344,159.599L842.344,190.299C842.344,191.319 842.547,192.146 842.952,192.783C843.358,193.42 844.073,194.142 845.097,194.949L840.423,199.025C838.544,198.049 837.232,196.924 836.485,195.65C835.738,194.376 835.364,192.635 835.364,190.427L835.364,159.726C835.364,158.665 835.172,157.815 834.788,157.178C834.404,156.541 833.699,155.841 832.675,155.076L837.349,151Z" style="fill:rgb(161,55,145);"/>
            </g>
        </g>
    </g>
    <g transform="matrix(0.32,0,0,0.32,220,325)">
        <g transform="matrix(1,0,0,1,-625,-625)">
            <g transform="matrix(2,0,0,2,-578,-98)">
                <g>
                    <path d="M328,89L328,635L874,635L874,89L328,89ZM333.99,50L868.01,50C892.857,50 913,70.143 913,94.99L913,629.01C913,653.857 892.857,674 868.01,674L333.99,674C309.143,674 289,653.857 289,629.01L289,94.99C289,70.143 309.143,50 333.99,50Z" style="fill:rgb(161,55,145);"/>
                    <path d="M436,174L431.366,174.468C422.381,176.308 415.303,183.391 413.465,192.385L413,197L413,174L436,174Z" style="fill:rgb(161,55,145);"/>
                    <path d="M413,527L413.468,531.634C415.308,540.619 422.392,547.697 431.385,549.535L436,550L413,550L413,527Z" style="fill:rgb(161,55,145);"/>
                    <path d="M555,509L554.532,504.165C552.692,494.789 545.609,487.404 536.615,485.485L532,485L555,485L555,509Z" style="fill:rgb(161,55,145);"/>
                    <path d="M367,151.5C367,138.521 377.521,128 390.5,128L811.5,128C824.479,128 835,138.521 835,151.5C835,164.479 824.479,175 811.5,175L390.5,175C377.521,175 367,164.479 367,151.5Z" style="fill:rgb(161,55,145);"/>
                    <path d="M390.5,596C377.521,596 367,585.479 367,572.5L367,151.5C367,138.521 377.521,128 390.5,128C403.479,128 414,138.521 414,151.5L414,572.5C414,585.479 403.479,596 390.5,596Z" style="fill:rgb(161,55,145);"/>
                    <path d="M367,572.5C367,559.521 377.521,549 390.5,549L577.5,549C590.479,549 601,559.521 601,572.5C601,585.479 590.479,596 577.5,596L390.5,596C377.521,596 367,585.479 367,572.5Z" style="fill:rgb(161,55,145);"/>
                    <path d="M577.5,440C590.479,440 601,450.521 601,463.5L601,572.5C601,585.479 590.479,596 577.5,596C564.521,596 554,585.479 554,572.5L554,463.5C554,450.521 564.521,440 577.5,440Z" style="fill:rgb(161,55,145);"/>
                    <path d="M484,463.5C484,450.521 494.521,440 507.5,440L577.5,440C590.479,440 601,450.521 601,463.5C601,476.479 590.479,487 577.5,487L507.5,487C494.521,487 484,476.479 484,463.5Z" style="fill:rgb(161,55,145);"/>
                    <path d="M491,337L491.468,341.634C493.308,350.619 500.392,357.697 509.385,359.535L514,360L491,360L491,337Z" style="fill:rgb(161,55,145);"/>
                    <path d="M532,360L536.835,359.533C546.211,357.692 553.596,350.609 555.515,341.615L556,337L556,360L532,360Z" style="fill:rgb(161,55,145);"/>
                    <path d="M445,379.632C445,368.237 454.237,359 465.632,359L580.368,359C591.763,359 601,368.237 601,379.632L601,385.368C601,396.763 591.763,406 580.368,406L465.632,406C454.237,406 445,396.763 445,385.368L445,379.632Z" style="fill:rgb(161,55,145);"/>
                    <path d="M471.368,211C482.763,211 492,220.237 492,231.632L492,385.368C492,396.763 482.763,406 471.368,406L465.632,406C454.237,406 445,396.763 445,385.368L445,231.632C445,220.237 454.237,211 465.632,211L471.368,211Z" style="fill:rgb(161,55,145);"/>
                    <path d="M580.368,211C591.763,211 601,220.237 601,231.632L601,385.368C601,396.763 591.763,406 580.368,406L574.632,406C563.237,406 554,396.763 554,385.368L554,231.632C554,220.237 563.237,211 574.632,211L580.368,211Z" style="fill:rgb(161,55,145);"/>
                    <path d="M688,360L692.835,359.533C702.211,357.692 709.596,350.609 711.515,341.615L712,337L712,360L688,360Z" style="fill:rgb(161,55,145);"/>
                    <path d="M779,256L774.366,256.488C765.381,258.408 758.304,265.8 756.465,275.184L756,280L756,256L779,256Z" style="fill:rgb(161,55,145);"/>
                    <path d="M736.368,211C747.763,211 757,220.237 757,231.632L757,385.368C757,396.763 747.763,406 736.368,406L730.632,406C719.237,406 710,396.763 710,385.368L710,231.632C710,220.237 719.237,211 730.632,211L736.368,211Z" style="fill:rgb(161,55,145);"/>
                    <path d="M636,231.632C636,220.237 645.237,211 656.632,211L810.368,211C821.763,211 831,220.237 831,231.632L831,237.368C831,248.763 821.763,258 810.368,258L656.632,258C645.237,258 636,248.763 636,237.368L636,231.632Z" style="fill:rgb(161,55,145);"/>
                    <path d="M636,379.632C636,368.237 645.237,359 656.632,359L810.368,359C821.763,359 831,368.237 831,379.632L831,385.368C831,396.763 821.763,406 810.368,406L656.632,406C645.237,406 636,396.763 636,385.368L636,379.632Z" style="fill:rgb(161,55,145);"/>
                    <path d="M636.046,500L682.86,500L683.729,508.659C688.468,531.945 708.961,549.461 733.523,549.461C758.085,549.461 778.578,531.945 783.317,508.659L784.185,500L831,500L830.579,508.344C825.583,557.579 784.036,596 733.523,596C683.01,596 641.463,557.579 636.467,508.344C636.326,505.563 635.852,502.947 636.046,500Z" style="fill:rgb(161,55,145);"/>
                    <path d="M636,459.632C636,448.237 645.237,439 656.632,439L810.368,439C821.763,439 831,448.237 831,459.632L831,465.368C831,476.763 821.763,486 810.368,486L656.632,486C645.237,486 636,476.763 636,465.368L636,459.632Z" style="fill:rgb(161,55,145);"/>
                    <path d="M662.367,439C673.763,439 683,448.237 683,459.632L683,500.367C683,511.762 673.763,521 662.367,521L656.633,521C645.238,521 636,511.762 636,500.367L636,459.632C636,448.237 645.238,439 656.633,439L662.367,439Z" style="fill:rgb(161,55,145);"/>
                    <path d="M810.367,439C821.763,439 831,448.238 831,459.633L831,501.367C831,512.763 821.763,522 810.367,522L804.633,522C793.238,522 784,512.763 784,501.367L784,459.633C784,448.238 793.238,439 804.633,439L810.367,439Z" style="fill:rgb(161,55,145);"/>
                    <path d="M532,550L536.634,549.532C545.619,547.692 552.697,540.609 554.535,531.615L555,527L555,550L532,550Z" style="fill:rgb(161,55,145);"/>
                </g>
            </g>
        </g>
    </g>
</svg>
